<svg width="226" height="209" viewBox="0 0 226 209" fill="none" xmlns="http://www.w3.org/2000/svg">
<mask id="mask0_1_153" style="mask-type:luminance" maskUnits="userSpaceOnUse" x="0" y="0" width="226" height="209">
<path d="M226 0H0V209H226V0Z" fill="white"/>
</mask>
<g mask="url(#mask0_1_153)">
<path d="M113.186 197.497C129.264 183.924 140.376 166.163 145.012 146.628C145.488 147.667 146.18 148.613 147.05 149.413C147.921 150.212 148.959 150.844 150.102 151.273C152.52 152.159 155.22 152.159 157.638 151.273C158.793 150.851 159.841 150.219 160.718 149.413C161.587 148.613 162.278 147.667 162.753 146.628C163.239 145.536 163.484 144.367 163.472 143.189V0H226.012V143.183C226.055 152.002 224.132 160.737 220.36 168.857C213.08 184.657 199.307 197.224 181.994 203.865C174.749 206.662 167.039 208.326 159.189 208.785C159.041 208.808 158.892 208.823 158.743 208.828C149.559 209.4 140.34 208.362 131.583 205.77C130.39 205.429 129.2 205.045 128.031 204.638C122.79 202.804 117.806 200.407 113.186 197.497Z" fill="url(#paint0_linear_1_153)"/>
<path d="M0.000398242 143.183V0H62.4151V143.183C62.4041 144.311 62.649 145.429 63.1341 146.467C63.6588 147.566 64.4045 148.565 65.332 149.413C66.2037 150.212 67.2411 150.844 68.384 151.273C70.8024 152.159 73.5017 152.159 75.9198 151.273C77.0749 150.851 78.1233 150.219 79 149.413C79.8757 148.605 80.5747 147.651 81.0598 146.605C81.5411 145.518 81.7772 144.354 81.7537 143.183V0H144.319V143.183C144.295 144.362 144.54 145.533 145.038 146.622C140.402 166.158 129.29 183.918 113.212 197.491C113.137 197.445 113.036 197.377 112.964 197.334C111.028 198.558 109.039 199.691 106.998 200.732C106.927 200.774 106.852 200.811 106.775 200.844C106.675 200.89 106.553 200.959 106.402 201.028C103.686 202.409 100.865 203.613 97.9618 204.63C80.5018 210.788 61.0998 210.497 43.8712 203.818C26.6426 197.139 12.9426 184.596 5.67727 168.851C1.89944 160.734 -0.0318894 152.002 0.000398242 143.183Z" fill="url(#paint1_linear_1_153)"/>
<g style="mix-blend-mode:multiply" opacity="0.16">
<path d="M113.186 197.497C129.264 183.924 140.376 166.164 145.012 146.628C145.488 147.667 146.18 148.613 147.05 149.413C147.921 150.213 148.959 150.845 150.102 151.273C152.52 152.159 155.22 152.159 157.638 151.273C158.793 150.852 159.841 150.219 160.718 149.413C161.587 148.613 162.278 147.667 162.753 146.628C163.239 145.536 163.484 144.367 163.472 143.189C163.756 155.151 161.03 167.013 155.504 177.863C149.977 188.712 141.798 198.261 131.595 205.773C130.402 205.432 129.212 205.048 128.044 204.641C122.798 202.807 117.81 200.409 113.186 197.497Z" fill="black"/>
</g>
<g style="mix-blend-mode:screen" opacity="0.7">
<path d="M0.000589341 143.183V26.1924C0.000589341 26.1924 0.223489 30.1586 0.496659 37.0822C0.719591 44.0172 1.19061 53.9412 1.4889 65.8139C1.83742 77.7124 2.11684 91.5796 2.28326 106.444C2.35861 113.875 2.43402 121.558 2.50624 129.37C2.53136 133.267 2.53133 137.188 2.55645 141.151C2.48302 144.994 2.74865 148.836 3.3508 152.64C4.55815 160.182 7.24938 167.464 11.2947 174.132C15.1957 180.615 20.275 186.446 26.316 191.376C32.0307 195.955 38.4929 199.692 45.4694 202.454C51.7702 204.922 58.4249 206.556 65.2319 207.306C75.542 208.462 86.0035 207.596 95.9181 204.767C98.7223 203.989 101.467 203.043 104.135 201.936C105.476 201.391 106.371 201.007 106.744 200.824C103.909 202.276 100.964 203.541 97.9307 204.609C80.4707 210.768 61.0687 210.477 43.8401 203.798C26.6113 197.118 12.9115 184.576 5.64612 168.831C1.88199 160.718 -0.0386502 151.993 0.000589341 143.183Z" fill="white"/>
</g>
<g style="mix-blend-mode:screen" opacity="0.7">
<path d="M43.0016 0H62.4155V66.9805C61.5458 61.4067 61.0748 55.8042 60.6509 50.2332C60.4782 47.4478 60.3055 44.6594 60.1799 41.851L59.9068 33.4888C59.8094 27.9149 59.7843 22.3125 59.9068 16.7444C59.9821 11.6921 60.2208 6.61409 60.5033 1.55608C57.8972 1.39847 55.3131 1.23795 52.707 0.982906C49.4917 0.733588 46.2263 0.429858 43.0016 0Z" fill="white"/>
</g>
<g style="mix-blend-mode:screen" opacity="0.7">
<path d="M81.7294 126.504V0H121.826C115.147 0.452784 108.469 0.770885 101.79 1.06319C95.7584 1.28958 89.7267 1.51594 83.6918 1.67642C83.8174 6.38767 83.965 11.1018 84.0403 15.8159C84.1157 21.0716 84.2629 26.3503 84.2629 31.6318L84.3135 47.4248L84.2378 63.2408C84.0903 73.778 83.8642 84.3382 83.4937 94.8726C83.0698 105.41 82.574 115.936 81.7294 126.504Z" fill="white"/>
</g>
<g style="mix-blend-mode:multiply" opacity="0.25">
<path d="M163.471 123.06V0H218.664C214.07 0.286572 209.476 0.521547 204.848 0.702088C200.22 0.882628 195.664 1.15482 191.07 1.27518C186.477 1.39554 181.858 1.61622 177.255 1.68499L165.684 1.97158C165.883 11.5775 166 21.1767 166.033 30.7693C166.08 35.8903 166.033 41.0114 166.008 46.1553C165.983 51.2993 165.983 56.3974 165.857 61.5414L165.543 76.9045C165.395 82.0485 165.295 87.1695 165.072 92.2906C164.9 97.4354 164.669 102.564 164.378 107.677C164.099 112.798 163.885 117.942 163.471 123.06Z" fill="black"/>
</g>
<g style="mix-blend-mode:multiply" opacity="0.25">
<path d="M159.19 208.785C160.258 208.648 162.418 208.309 165.448 207.696C171.483 206.469 177.329 204.566 182.852 202.031C186.498 200.361 189.992 198.43 193.302 196.253C196.97 193.841 200.386 191.126 203.507 188.14C206.836 184.954 209.806 181.47 212.37 177.741C215.047 173.903 217.268 169.816 218.999 165.55C220.782 161.325 222.046 156.933 222.767 152.454C223.427 148.046 223.742 143.602 223.709 139.154C223.881 130.316 224.154 122.045 224.503 114.953C225.131 100.79 225.991 91.342 225.991 91.342V143.186C226.034 152.005 224.111 160.74 220.339 168.86C213.064 184.655 199.299 197.22 181.995 203.865C174.75 206.662 167.041 208.326 159.19 208.785Z" fill="black"/>
</g>
<g style="mix-blend-mode:screen" opacity="0.7">
<path d="M113.186 197.497L115.965 194.777L118.622 191.968C120.386 190.086 122.075 188.16 123.645 186.168C125.215 184.177 126.751 182.133 128.164 180.05C129.577 177.966 130.92 175.835 132.211 173.683C133.501 171.53 134.619 169.309 135.712 167.091C136.805 164.873 137.771 162.581 138.691 160.294C139.611 158.007 140.381 155.671 141.1 153.336L142.092 149.78L142.789 146.81V146.787C142.261 145.289 142.033 143.715 142.117 142.142L142.042 137.557L141.92 128.387L141.819 110.046C141.769 103.928 141.819 97.8323 141.844 91.7054C141.869 85.5785 141.869 79.4688 141.995 73.3648C142.118 61.1531 142.358 48.9328 142.714 36.7036C142.886 30.5853 143.088 24.4671 143.383 18.3631C143.678 12.2591 143.882 6.15228 144.277 0.0224915V143.205C144.253 144.385 144.498 145.556 144.996 146.644C140.361 166.172 129.255 183.926 113.186 197.497Z" fill="white"/>
</g>
</g>
<defs>
<linearGradient id="paint0_linear_1_153" x1="-1229" y1="2264.1" x2="-1134.22" y2="2264.1" gradientUnits="userSpaceOnUse">
<stop stop-color="#00EFFC"/>
<stop offset="1" stop-color="#1D2671"/>
</linearGradient>
<linearGradient id="paint1_linear_1_153" x1="-1075.6" y1="2166.35" x2="-1075.6" y2="2370.59" gradientUnits="userSpaceOnUse">
<stop stop-color="#00E5F4"/>
<stop offset="1" stop-color="#F8007A"/>
</linearGradient>
</defs>
</svg>
